# xmcd
# 
# Track frame offsets:
#     150
#     16430
#     33386
#     49902
#     67750
#     81236
#     95350
#     110054
#     125718
#     137641
#     156471
#     205210
# 
# Disc length: 2886
# 
# Revision: 4
# Processed by: cddbd v1.5.2PL0 Copyright (c) Steve Scherf et al.
# Submitted via: fre:ac v1.0.31
# 
DISCID=a80b440c
DTITLE=Kids In The Way - Apparations of Melody
DYEAR=2005
DGENRE=Hard Rock
TTITLE0=Last Day of 1888
TTITLE1=Safety in the Darkness
TTITLE2=Even Snakes Have Hearts
TTITLE3=Breaking the Legs of Sheep
TTITLE4=Apparations of Melody
TTITLE5=The Seed We've Sown
TTITLE6=Sad and Guilty Ways
TTITLE7=Blind Behind the Wheel
TTITLE8=Burt Rutan
TTITLE9=Head over Heals
TTITLE10=This Could be the Song That Will Change Your Heart
TTITLE11=Data Track
EXTD=www.gerth.de YEAR: 2005
EXTT0=
EXTT1=
EXTT2=
EXTT3=
EXTT4=
EXTT5=
EXTT6=
EXTT7=
EXTT8=
EXTT9=
EXTT10=
EXTT11=
PLAYORDER=
